<svg width="103" height="46" viewBox="0 0 103 46" fill="none" xmlns="http://www.w3.org/2000/svg">
    <g filter="url(#filter0_d_1028_43341)">
        <path d="M3.288 15.542L8.264 4.26199H9.416L14.472 15.542H13.096L11.688 12.326L12.28 12.662H5.384L6.024 12.326L4.648 15.542H3.288ZM8.824 5.78199L6.232 11.862L5.848 11.574H11.8L11.512 11.862L8.856 5.78199H8.824ZM17.9758 15.542L14.5358 7.50999H15.9438L18.8238 14.582H18.3918L21.3038 7.50999H22.6478L19.2078 15.542H17.9758ZM27.0075 15.686C26.2928 15.686 25.6688 15.5207 25.1355 15.19C24.6022 14.8487 24.1862 14.3687 23.8875 13.75C23.5995 13.1313 23.4555 12.39 23.4555 11.526C23.4555 10.6513 23.5995 9.90466 23.8875 9.28599C24.1862 8.66733 24.6022 8.19266 25.1355 7.86199C25.6688 7.53133 26.2928 7.36599 27.0075 7.36599C27.7328 7.36599 28.3568 7.55266 28.8795 7.92599C29.4128 8.28866 29.7648 8.78466 29.9355 9.41399H29.7435L29.9195 7.50999H31.1675C31.1355 7.81933 31.1035 8.13399 31.0715 8.45399C31.0502 8.76333 31.0395 9.06733 31.0395 9.36599V15.542H29.7435V13.654H29.9195C29.7488 14.2833 29.3968 14.7793 28.8635 15.142C28.3302 15.5047 27.7115 15.686 27.0075 15.686ZM27.2635 14.63C28.0315 14.63 28.6395 14.3687 29.0875 13.846C29.5355 13.3127 29.7595 12.5393 29.7595 11.526C29.7595 10.502 29.5355 9.72866 29.0875 9.20599C28.6395 8.67266 28.0315 8.40599 27.2635 8.40599C26.5062 8.40599 25.8982 8.67266 25.4395 9.20599C24.9915 9.72866 24.7675 10.502 24.7675 11.526C24.7675 12.5393 24.9915 13.3127 25.4395 13.846C25.8982 14.3687 26.5062 14.63 27.2635 14.63ZM33.5453 15.542V7.50999H34.8413V15.542H33.5453ZM33.3853 5.68599V4.22999H34.9853V5.68599H33.3853ZM37.3578 15.542V3.76599H38.6538V15.542H37.3578ZM44.2263 15.686C43.5116 15.686 42.8876 15.5207 42.3543 15.19C41.8209 14.8487 41.4049 14.3687 41.1063 13.75C40.8183 13.1313 40.6743 12.39 40.6743 11.526C40.6743 10.6513 40.8183 9.90466 41.1063 9.28599C41.4049 8.66733 41.8209 8.19266 42.3543 7.86199C42.8876 7.53133 43.5116 7.36599 44.2263 7.36599C44.9516 7.36599 45.5756 7.55266 46.0983 7.92599C46.6316 8.28866 46.9836 8.78466 47.1543 9.41399H46.9623L47.1383 7.50999H48.3863C48.3543 7.81933 48.3223 8.13399 48.2903 8.45399C48.2689 8.76333 48.2583 9.06733 48.2583 9.36599V15.542H46.9623V13.654H47.1383C46.9676 14.2833 46.6156 14.7793 46.0823 15.142C45.5489 15.5047 44.9303 15.686 44.2263 15.686ZM44.4823 14.63C45.2503 14.63 45.8583 14.3687 46.3063 13.846C46.7543 13.3127 46.9783 12.5393 46.9783 11.526C46.9783 10.502 46.7543 9.72866 46.3063 9.20599C45.8583 8.67266 45.2503 8.40599 44.4823 8.40599C43.7249 8.40599 43.1169 8.67266 42.6583 9.20599C42.2103 9.72866 41.9863 10.502 41.9863 11.526C41.9863 12.5393 42.2103 13.3127 42.6583 13.846C43.1169 14.3687 43.7249 14.63 44.4823 14.63ZM54.796 15.686C54.0707 15.686 53.4467 15.5047 52.924 15.142C52.4013 14.7687 52.0493 14.262 51.868 13.622H52.044V15.542H50.764V3.76599H52.06V9.38199H51.868C52.0493 8.76333 52.4013 8.27266 52.924 7.90999C53.4467 7.54732 54.0707 7.36599 54.796 7.36599C55.5213 7.36599 56.1453 7.53666 56.668 7.87799C57.2013 8.20866 57.612 8.68333 57.9 9.30199C58.1987 9.92066 58.348 10.662 58.348 11.526C58.348 12.39 58.1987 13.1313 57.9 13.75C57.6013 14.3687 57.1853 14.8487 56.652 15.19C56.1293 15.5207 55.5107 15.686 54.796 15.686ZM54.524 14.63C55.2813 14.63 55.8893 14.3687 56.348 13.846C56.8067 13.3233 57.036 12.55 57.036 11.526C57.036 10.502 56.8067 9.72866 56.348 9.20599C55.8893 8.67266 55.2813 8.40599 54.524 8.40599C53.7667 8.40599 53.1587 8.67266 52.7 9.20599C52.252 9.72866 52.028 10.502 52.028 11.526C52.028 12.5393 52.252 13.3127 52.7 13.846C53.1587 14.3687 53.7667 14.63 54.524 14.63ZM60.3578 15.542V3.76599H61.6538V15.542H60.3578ZM67.7383 15.686C66.4796 15.686 65.4876 15.3233 64.7623 14.598C64.0369 13.862 63.6743 12.8433 63.6743 11.542C63.6743 10.6993 63.8343 9.96866 64.1543 9.34999C64.4743 8.72066 64.9223 8.23533 65.4983 7.89399C66.0743 7.54199 66.7356 7.36599 67.4823 7.36599C68.2183 7.36599 68.8369 7.52066 69.3383 7.82999C69.8396 8.13933 70.2236 8.58199 70.4903 9.15799C70.7569 9.72333 70.8903 10.3953 70.8903 11.174V11.654H64.6663V10.838H70.0423L69.7703 11.046C69.7703 10.1927 69.5783 9.52599 69.1943 9.04599C68.8103 8.56599 68.2396 8.32599 67.4823 8.32599C66.6823 8.32599 66.0583 8.60866 65.6103 9.17399C65.1623 9.72866 64.9383 10.4807 64.9383 11.43V11.574C64.9383 12.5767 65.1836 13.3393 65.6743 13.862C66.1756 14.374 66.8743 14.63 67.7703 14.63C68.2503 14.63 68.6983 14.5607 69.1143 14.422C69.5409 14.2727 69.9463 14.0327 70.3303 13.702L70.7783 14.614C70.4263 14.9553 69.9783 15.222 69.4343 15.414C68.9009 15.5953 68.3356 15.686 67.7383 15.686ZM80.3413 15.686C79.5733 15.686 78.9013 15.5207 78.3253 15.19C77.7599 14.8487 77.3226 14.3687 77.0133 13.75C76.7039 13.1207 76.5493 12.3793 76.5493 11.526C76.5493 10.662 76.7039 9.92066 77.0133 9.30199C77.3226 8.68333 77.7599 8.20866 78.3253 7.87799C78.9013 7.53666 79.5733 7.36599 80.3413 7.36599C81.1199 7.36599 81.7919 7.53666 82.3573 7.87799C82.9333 8.20866 83.3759 8.68333 83.6853 9.30199C84.0053 9.92066 84.1653 10.662 84.1653 11.526C84.1653 12.3793 84.0053 13.1207 83.6853 13.75C83.3759 14.3687 82.9333 14.8487 82.3573 15.19C81.7919 15.5207 81.1199 15.686 80.3413 15.686ZM80.3413 14.63C81.1093 14.63 81.7173 14.3687 82.1653 13.846C82.6133 13.3127 82.8373 12.5393 82.8373 11.526C82.8373 10.502 82.6079 9.72866 82.1493 9.20599C81.7013 8.67266 81.0986 8.40599 80.3413 8.40599C79.5839 8.40599 78.9813 8.67266 78.5333 9.20599C78.0853 9.72866 77.8613 10.502 77.8613 11.526C77.8613 12.5393 78.0853 13.3127 78.5333 13.846C78.9813 14.3687 79.5839 14.63 80.3413 14.63ZM86.1859 15.542V9.36599C86.1859 9.06733 86.1699 8.76333 86.1379 8.45399C86.1165 8.13399 86.0899 7.81933 86.0579 7.50999H87.3059L87.4659 9.26999H87.2739C87.5085 8.65133 87.8819 8.18199 88.3939 7.86199C88.9165 7.53133 89.5192 7.36599 90.2019 7.36599C91.1512 7.36599 91.8659 7.62199 92.3459 8.13399C92.8365 8.63533 93.0819 9.42999 93.0819 10.518V15.542H91.7859V10.598C91.7859 9.84066 91.6312 9.29133 91.3219 8.94999C91.0232 8.59799 90.5539 8.42199 89.9139 8.42199C89.1672 8.42199 88.5752 8.65133 88.1379 9.10999C87.7005 9.56866 87.4819 10.182 87.4819 10.95V15.542H86.1859Z" fill="white"/>
    </g>
    <g filter="url(#filter1_d_1028_43341)">
        <path d="M4.248 36.542V25.262H9.256C10.4933 25.262 11.4373 25.5607 12.088 26.158C12.7387 26.7553 13.064 27.5767 13.064 28.622C13.064 29.6567 12.7387 30.478 12.088 31.086C11.4373 31.694 10.4933 31.998 9.256 31.998H6.312V36.542H4.248ZM6.312 30.366H9.016C9.69867 30.366 10.2107 30.2167 10.552 29.918C10.8933 29.6087 11.064 29.1767 11.064 28.622C11.064 28.0673 10.8933 27.6407 10.552 27.342C10.2107 27.0327 9.69867 26.878 9.016 26.878H6.312V30.366ZM20.0741 36.702C18.9008 36.702 17.8928 36.4673 17.0501 35.998C16.2181 35.518 15.5781 34.846 15.1301 33.982C14.6821 33.1073 14.4581 32.078 14.4581 30.894C14.4581 29.71 14.6821 28.686 15.1301 27.822C15.5781 26.958 16.2181 26.2913 17.0501 25.822C17.8928 25.342 18.9008 25.102 20.0741 25.102C20.8635 25.102 21.5728 25.214 22.2021 25.438C22.8421 25.662 23.3915 25.9927 23.8501 26.43L23.1781 28.062C22.6768 27.6567 22.1915 27.3687 21.7221 27.198C21.2635 27.0167 20.7355 26.926 20.1381 26.926C18.9968 26.926 18.1221 27.2727 17.5141 27.966C16.9168 28.6487 16.6181 29.6247 16.6181 30.894C16.6181 32.1633 16.9168 33.1447 17.5141 33.838C18.1221 34.5313 18.9968 34.878 20.1381 34.878C20.7355 34.878 21.2635 34.7927 21.7221 34.622C22.1915 34.4407 22.6768 34.142 23.1781 33.726L23.8501 35.358C23.3915 35.7847 22.8421 36.1153 22.2021 36.35C21.5728 36.5847 20.8635 36.702 20.0741 36.702Z" fill="white"/>
    </g>
    <g filter="url(#filter2_d_1028_43341)">
        <path d="M39.432 36.686C38.9413 36.462 38.4827 36.19 38.056 35.87C37.6293 35.5393 37.2667 35.2193 36.968 34.91L37.288 34.926C36.8293 35.4807 36.2747 35.9127 35.624 36.222C34.9733 36.5313 34.264 36.686 33.496 36.686C32.728 36.686 32.0667 36.5687 31.512 36.334C30.968 36.0887 30.5467 35.7527 30.248 35.326C29.96 34.8993 29.816 34.4033 29.816 33.838C29.816 33.102 30.0293 32.478 30.456 31.966C30.8827 31.454 31.4907 30.942 32.28 30.43L32.808 30.094L32.616 30.334C32.1147 29.8007 31.7467 29.326 31.512 28.91C31.288 28.4833 31.176 28.046 31.176 27.598C31.176 27.1073 31.2933 26.6753 31.528 26.302C31.7627 25.9287 32.088 25.6407 32.504 25.438C32.9307 25.2247 33.432 25.118 34.008 25.118C34.7333 25.118 35.336 25.326 35.816 25.742C36.3067 26.1473 36.552 26.702 36.552 27.406C36.552 27.79 36.472 28.1527 36.312 28.494C36.1627 28.8247 35.9067 29.1553 35.544 29.486C35.1813 29.806 34.6907 30.158 34.072 30.542L34.104 30.238L37.208 33.598H36.92C37.1973 33.1607 37.4107 32.622 37.56 31.982C37.72 31.3313 37.8107 30.6487 37.832 29.934H38.968C38.9467 30.8193 38.824 31.646 38.6 32.414C38.376 33.1713 38.0773 33.8433 37.704 34.43L37.672 34.046C37.9493 34.3447 38.2853 34.6487 38.68 34.958C39.0747 35.2567 39.5013 35.5127 39.96 35.726L39.432 36.686ZM33.544 35.63C34.184 35.63 34.7493 35.502 35.24 35.246C35.7413 34.99 36.1787 34.6167 36.552 34.126L36.52 34.494L33.048 30.782L33.544 30.798L33.048 31.102C32.6 31.4007 32.232 31.6833 31.944 31.95C31.656 32.2167 31.4427 32.494 31.304 32.782C31.1653 33.07 31.096 33.3953 31.096 33.758C31.096 34.3447 31.304 34.8033 31.72 35.134C32.1467 35.4647 32.7547 35.63 33.544 35.63ZM34.008 26.094C33.528 26.094 33.1387 26.2327 32.84 26.51C32.5413 26.7767 32.392 27.134 32.392 27.582C32.392 27.8167 32.4293 28.0353 32.504 28.238C32.5893 28.4407 32.728 28.6647 32.92 28.91C33.112 29.1447 33.368 29.4433 33.688 29.806L33.336 29.854C34.072 29.406 34.6053 29.006 34.936 28.654C35.2773 28.2913 35.448 27.8967 35.448 27.47C35.448 27.054 35.3147 26.7233 35.048 26.478C34.792 26.222 34.4453 26.094 34.008 26.094Z" fill="white"/>
    </g>
    <g filter="url(#filter3_d_1028_43341)">
        <path d="M45.264 36.542V25.262H47.072L51.216 34.59H50.72L54.864 25.262H56.656V36.542H54.784V28.174H55.36L51.568 36.542H50.336L46.544 28.174H47.136V36.542H45.264ZM62.1299 36.702C61.4259 36.702 60.8072 36.5367 60.2739 36.206C59.7405 35.8647 59.3245 35.3793 59.0259 34.75C58.7272 34.1207 58.5779 33.3687 58.5779 32.494C58.5779 31.6193 58.7272 30.8727 59.0259 30.254C59.3245 29.6247 59.7405 29.1447 60.2739 28.814C60.8072 28.4727 61.4259 28.302 62.1299 28.302C62.8125 28.302 63.4099 28.4727 63.9219 28.814C64.4445 29.1447 64.7912 29.5927 64.9619 30.158H64.7859L64.9619 28.462H66.8819C66.8499 28.7927 66.8179 29.1287 66.7859 29.47C66.7645 29.8113 66.7539 30.1473 66.7539 30.478V36.542H64.7699L64.7539 34.878H64.9459C64.7752 35.4327 64.4285 35.8753 63.9059 36.206C63.3832 36.5367 62.7912 36.702 62.1299 36.702ZM62.6899 35.166C63.3192 35.166 63.8259 34.9473 64.2099 34.51C64.5939 34.062 64.7859 33.39 64.7859 32.494C64.7859 31.598 64.5939 30.9313 64.2099 30.494C63.8259 30.0567 63.3192 29.838 62.6899 29.838C62.0605 29.838 61.5539 30.0567 61.1699 30.494C60.7859 30.9313 60.5939 31.598 60.5939 32.494C60.5939 33.39 60.7805 34.062 61.1539 34.51C61.5379 34.9473 62.0499 35.166 62.6899 35.166ZM72.6438 36.702C71.8118 36.702 71.0811 36.5313 70.4518 36.19C69.8331 35.8487 69.3531 35.3633 69.0118 34.734C68.6704 34.094 68.4998 33.3367 68.4998 32.462C68.4998 31.5873 68.6704 30.8407 69.0118 30.222C69.3638 29.6033 69.8491 29.1287 70.4678 28.798C71.0864 28.4673 71.8118 28.302 72.6438 28.302C73.1771 28.302 73.6944 28.3873 74.1958 28.558C74.7078 28.718 75.1238 28.9527 75.4438 29.262L74.8358 30.654C74.5478 30.3873 74.2224 30.19 73.8598 30.062C73.5078 29.9233 73.1611 29.854 72.8198 29.854C72.1051 29.854 71.5451 30.078 71.1398 30.526C70.7451 30.974 70.5478 31.6247 70.5478 32.478C70.5478 33.3313 70.7451 33.9873 71.1398 34.446C71.5451 34.9047 72.1051 35.134 72.8198 35.134C73.1504 35.134 73.4918 35.07 73.8438 34.942C74.2064 34.814 74.5371 34.6167 74.8358 34.35L75.4438 35.726C75.1131 36.0353 74.6918 36.2753 74.1798 36.446C73.6784 36.6167 73.1664 36.702 72.6438 36.702Z" fill="white"/>
    </g>
    <defs>
        <filter id="filter0_d_1028_43341" x="0.288025" y="0.766113" width="101.794" height="23.9199" filterUnits="userSpaceOnUse" color-interpolation-filters="sRGB">
            <feFlood flood-opacity="0" result="BackgroundImageFix"/>
            <feColorMatrix in="SourceAlpha" type="matrix" values="0 0 0 0 0 0 0 0 0 0 0 0 0 0 0 0 0 0 127 0" result="hardAlpha"/>
            <feOffset dx="3" dy="3"/>
            <feGaussianBlur stdDeviation="3"/>
            <feComposite in2="hardAlpha" operator="out"/>
            <feColorMatrix type="matrix" values="0 0 0 0 0.0126562 0 0 0 0 0.0196125 0 0 0 0 0.0375 0 0 0 0.35 0"/>
            <feBlend mode="normal" in2="BackgroundImageFix" result="effect1_dropShadow_1028_43341"/>
            <feBlend mode="normal" in="SourceGraphic" in2="effect1_dropShadow_1028_43341" result="shape"/>
        </filter>
        <filter id="filter1_d_1028_43341" x="1.24799" y="22.1021" width="31.6021" height="23.6001" filterUnits="userSpaceOnUse" color-interpolation-filters="sRGB">
            <feFlood flood-opacity="0" result="BackgroundImageFix"/>
            <feColorMatrix in="SourceAlpha" type="matrix" values="0 0 0 0 0 0 0 0 0 0 0 0 0 0 0 0 0 0 127 0" result="hardAlpha"/>
            <feOffset dx="3" dy="3"/>
            <feGaussianBlur stdDeviation="3"/>
            <feComposite in2="hardAlpha" operator="out"/>
            <feColorMatrix type="matrix" values="0 0 0 0 0.0126562 0 0 0 0 0.0196125 0 0 0 0 0.0375 0 0 0 0.35 0"/>
            <feBlend mode="normal" in2="BackgroundImageFix" result="effect1_dropShadow_1028_43341"/>
            <feBlend mode="normal" in="SourceGraphic" in2="effect1_dropShadow_1028_43341" result="shape"/>
        </filter>
        <filter id="filter2_d_1028_43341" x="26.816" y="22.1182" width="22.144" height="23.5679" filterUnits="userSpaceOnUse" color-interpolation-filters="sRGB">
            <feFlood flood-opacity="0" result="BackgroundImageFix"/>
            <feColorMatrix in="SourceAlpha" type="matrix" values="0 0 0 0 0 0 0 0 0 0 0 0 0 0 0 0 0 0 127 0" result="hardAlpha"/>
            <feOffset dx="3" dy="3"/>
            <feGaussianBlur stdDeviation="3"/>
            <feComposite in2="hardAlpha" operator="out"/>
            <feColorMatrix type="matrix" values="0 0 0 0 0.0126562 0 0 0 0 0.0196125 0 0 0 0 0.0375 0 0 0 0.35 0"/>
            <feBlend mode="normal" in2="BackgroundImageFix" result="effect1_dropShadow_1028_43341"/>
            <feBlend mode="normal" in="SourceGraphic" in2="effect1_dropShadow_1028_43341" result="shape"/>
        </filter>
        <filter id="filter3_d_1028_43341" x="42.264" y="22.2622" width="42.1797" height="23.4399" filterUnits="userSpaceOnUse" color-interpolation-filters="sRGB">
            <feFlood flood-opacity="0" result="BackgroundImageFix"/>
            <feColorMatrix in="SourceAlpha" type="matrix" values="0 0 0 0 0 0 0 0 0 0 0 0 0 0 0 0 0 0 127 0" result="hardAlpha"/>
            <feOffset dx="3" dy="3"/>
            <feGaussianBlur stdDeviation="3"/>
            <feComposite in2="hardAlpha" operator="out"/>
            <feColorMatrix type="matrix" values="0 0 0 0 0.0126562 0 0 0 0 0.0196125 0 0 0 0 0.0375 0 0 0 0.35 0"/>
            <feBlend mode="normal" in2="BackgroundImageFix" result="effect1_dropShadow_1028_43341"/>
            <feBlend mode="normal" in="SourceGraphic" in2="effect1_dropShadow_1028_43341" result="shape"/>
        </filter>
    </defs>
</svg>